<svg width="713" height="150" viewBox="0 0 713 150" fill="none" xmlns="http://www.w3.org/2000/svg">
<g clip-path="url(#clip0_2_8)">
<path d="M19.3182 182V36.5455H66.2642C76.5862 36.5455 85.2036 38.5341 92.1165 42.5114C99.0767 46.4413 104.309 51.7917 107.812 58.5625C111.364 65.3333 113.139 72.9564 113.139 81.4318C113.139 89.9072 111.387 97.554 107.884 104.372C104.38 111.143 99.1714 116.517 92.2585 120.494C85.3456 124.424 76.7519 126.389 66.4773 126.389H29.5455V114.457H66.1222C73.7453 114.457 80.0663 113.037 85.0852 110.196C90.1042 107.308 93.8447 103.378 96.3068 98.4062C98.8163 93.4347 100.071 87.7765 100.071 81.4318C100.071 75.0871 98.8163 69.429 96.3068 64.4574C93.8447 59.4858 90.0805 55.5795 85.0142 52.7386C79.9953 49.8977 73.6269 48.4773 65.9091 48.4773H32.5994V182H19.3182Z" fill="#039FB6"/>
<path d="M147.313 42.0455V107.5H135.456V42.0455H147.313ZM220.68 64.13H208.726C208.385 62.1697 207.757 60.4332 206.841 58.9205C205.925 57.3864 204.785 56.0866 203.421 55.0213C202.057 53.956 200.502 53.157 198.755 52.6243C197.029 52.0703 195.165 51.7933 193.162 51.7933C189.604 51.7933 186.45 52.6882 183.702 54.478C180.953 56.2464 178.801 58.8459 177.246 62.2763C175.69 65.6854 174.912 69.8509 174.912 74.7727C174.912 79.7798 175.69 83.9986 177.246 87.429C178.822 90.8381 180.974 93.4162 183.702 95.1634C186.45 96.8892 189.593 97.7521 193.13 97.7521C195.09 97.7521 196.922 97.4964 198.627 96.9851C200.353 96.4524 201.898 95.6747 203.261 94.652C204.646 93.6293 205.807 92.3722 206.745 90.8807C207.704 89.3892 208.364 87.6847 208.726 85.767L220.68 85.831C220.232 88.9418 219.263 91.8608 217.771 94.5881C216.301 97.3153 214.373 99.723 211.986 101.811C209.6 103.878 206.809 105.497 203.613 106.669C200.417 107.82 196.869 108.395 192.97 108.395C187.217 108.395 182.082 107.063 177.565 104.4C173.048 101.737 169.49 97.8906 166.89 92.8622C164.291 87.8338 162.991 81.804 162.991 74.7727C162.991 67.7202 164.302 61.6903 166.922 56.6832C169.543 51.6548 173.112 47.8089 177.629 45.1456C182.146 42.4822 187.26 41.1506 192.97 41.1506C196.613 41.1506 200.001 41.6619 203.133 42.6847C206.265 43.7074 209.057 45.2095 211.507 47.1911C213.957 49.1513 215.971 51.5589 217.547 54.4141C219.145 57.2479 220.189 60.4865 220.68 64.13ZM236.038 107.5V42.0455H247.895V72.12H248.694L274.23 42.0455H288.708L263.396 71.4169L288.932 107.5H274.678L255.15 79.4389L247.895 88.0043V107.5H236.038ZM394.836 107.5H372.655V42.0455H395.283C401.782 42.0455 407.364 43.3558 412.03 45.9766C416.718 48.576 420.319 52.3153 422.833 57.1946C425.347 62.0739 426.604 67.9119 426.604 74.7088C426.604 81.527 425.336 87.3864 422.801 92.2869C420.287 97.1875 416.654 100.948 411.902 103.569C407.172 106.19 401.483 107.5 394.836 107.5ZM384.512 97.2408H394.26C398.82 97.2408 402.623 96.4098 405.67 94.7479C408.717 93.0646 411.007 90.5611 412.542 87.2372C414.076 83.892 414.843 79.7159 414.843 74.7088C414.843 69.7017 414.076 65.5469 412.542 62.2443C411.007 58.9205 408.738 56.4382 405.734 54.7976C402.751 53.1357 399.044 52.3047 394.612 52.3047H384.512V97.2408ZM442.37 107.5V42.0455H466.915C471.944 42.0455 476.163 42.919 479.572 44.6662C483.002 46.4133 485.591 48.8636 487.338 52.017C489.107 55.1491 489.991 58.8033 489.991 62.9794C489.991 67.1768 489.096 70.8203 487.306 73.9098C485.538 76.978 482.928 79.3537 479.476 81.0369C476.024 82.6989 471.784 83.5298 466.756 83.5298H449.273V73.6861H465.158C468.098 73.6861 470.506 73.2812 472.381 72.4716C474.256 71.6406 475.641 70.4368 476.536 68.8601C477.452 67.2621 477.91 65.3018 477.91 62.9794C477.91 60.657 477.452 58.6754 476.536 57.0348C475.619 55.3729 474.224 54.1158 472.349 53.2635C470.474 52.3899 468.055 51.9531 465.094 51.9531H454.227V107.5H442.37ZM476.184 77.8409L492.388 107.5H479.156L463.24 77.8409H476.184ZM517.262 42.0455V107.5H505.405V42.0455H517.262ZM543.36 42.0455L560.394 93.5653H561.066L578.068 42.0455H591.108L568.033 107.5H553.395L530.352 42.0455H543.36Z" fill="#039FB6"/>
<path d="M355.235 42.0455V107.5H344.688L313.847 62.9155H313.303V107.5H301.446V42.0455H312.057L342.867 86.6619H343.442V42.0455H355.235Z" fill="#FA9719"/>
<path d="M656.795 149.773C646.616 149.773 637.809 147.405 630.375 142.67C622.941 137.888 617.188 131.283 613.116 122.855C609.092 114.38 607.08 104.626 607.08 93.5938C607.08 82.6089 609.092 72.8551 613.116 64.3324C617.188 55.7623 622.799 49.0625 629.949 44.233C637.146 39.3561 645.455 36.9176 654.878 36.9176C660.796 36.9176 666.502 38.0066 671.994 40.1847C677.487 42.3153 682.411 45.6061 686.767 50.0568C691.17 54.4602 694.651 60.0237 697.207 66.7472C699.764 73.4233 701.043 81.3305 701.043 90.4688V96.7188H615.815V85.5682H688.116C688.116 78.5606 686.696 72.2633 683.855 66.6761C681.062 61.0417 677.155 56.5909 672.136 53.3239C667.165 50.0568 661.412 48.4233 654.878 48.4233C647.965 48.4233 641.881 50.2699 636.625 53.9631C631.369 57.6562 627.25 62.5331 624.267 68.5938C621.331 74.6544 619.84 81.2831 619.793 88.4801V95.1562C619.793 103.821 621.284 111.397 624.267 117.884C627.297 124.323 631.582 129.318 637.122 132.869C642.662 136.42 649.22 138.196 656.795 138.196C661.956 138.196 666.478 137.391 670.361 135.781C674.291 134.171 677.581 132.017 680.233 129.318C682.932 126.572 684.968 123.565 686.341 120.298L698.344 124.205C696.687 128.797 693.964 133.035 690.176 136.918C686.436 140.8 681.748 143.925 676.114 146.293C670.527 148.613 664.087 149.773 656.795 149.773Z" fill="#039FB6"/>
</g>
<defs>
<clipPath id="clip0_2_8">
<rect width="713" height="150" fill="white"/>
</clipPath>
</defs>
</svg>
